<svg width="20" height="16" viewBox="0 0 20 16" fill="none" xmlns="http://www.w3.org/2000/svg">
<g clip-path="url(#clip0_213_143)">
<path d="M6.02677 3.36707C5.72696 2.3514 4.91318 2.46272 4.35677 2.93577C2.98614 4.20185 1.20148 6.85927 2.34368 10.6858C3.30025 13.9275 7.28058 16.0006 7.28058 16.0006H2.64058C2.64058 16.0006 0.24475 13.3154 0.0305776 10.1571C-0.240682 6.16409 1.35851 3.64578 3.21456 2.00409C4.95639 0.459726 6.61257 0.000610352 6.61257 0.000610352L10.0004 11.1006L13.3882 0.000610352C13.3882 0.000610352 15.0444 0.459727 16.7862 2.00409C18.6423 3.64578 20.2415 6.16409 19.9702 10.1571C19.756 13.3154 17.3602 16.0006 17.3602 16.0006H12.7202C12.7202 16.0006 16.7002 13.9275 17.6571 10.6858C18.7993 6.85971 17.0147 4.20228 15.644 2.93577C15.0872 2.46272 14.2734 2.3514 13.974 3.36707C12.9461 6.60882 10.0008 15.8971 10.0008 15.8971C10.0008 15.8971 7.05558 6.60571 6.02761 3.36707H6.02677Z" fill="white"/>
</g>
<defs>
<clipPath id="clip0_213_143">
<rect width="20" height="16" fill="white"/>
</clipPath>
</defs>
</svg>
